<svg id="Layer_1" data-name="Layer 1" xmlns="http://www.w3.org/2000/svg" width="96" height="96" viewBox="0 0 96 96"><title>Artboard 17_users</title><g id="user_male_group2" data-name="user male group2"><polygon points="34.079 61.644 34.079 47.941 26.278 43.652 18.436 47.987 18.436 61.644 34.079 61.644" fill="#afbdc4"/><polygon points="28.403 50.715 24.114 50.715 24.97 53.125 27.544 53.125 28.403 50.715" fill="#445963"/><path d="M26.278,40.506a5.105,5.105,0,1,1-5.023,5.1A5.065,5.065,0,0,1,26.278,40.506Z" fill="#f4cc90"/><path d="M21.329,37.827c.232,1.15-.165,2.2-.886,2.347s-1.49-.672-1.722-1.825.164-2.2.885-2.347S21.1,36.674,21.329,37.827Z" fill="#ffd997"/><path d="M31.221,37.827c-.231,1.15.165,2.2.885,2.347s1.492-.672,1.722-1.825-.164-2.2-.885-2.347S31.451,36.674,31.221,37.827Z" fill="#ffd997"/><path d="M32.723,38.581c0,4.7-3.356,8.5-6.5,8.5s-6.5-3.807-6.5-8.5,3.355-8.5,6.5-8.5S32.723,33.886,32.723,38.581Z" fill="#ffd997"/><path d="M32.72,38.3a11.872,11.872,0,0,0,.642-1.5c1.915-5.51-.338-8.333-3.163-8.439l-.008.006a5.289,5.289,0,0,0-4.929-2.488A6.9,6.9,0,0,0,18.487,33.2a13.839,13.839,0,0,0,1.234,5.145s-.037-3.631,1.844-3.9,6.89.266,8-2.336C29.564,32.113,32.784,33.693,32.72,38.3Z" fill="#414141"/><path d="M22.367,61.644A58.4,58.4,0,0,1,20.35,46.51l-9.884,4.778L7.593,61.644Z" fill="#536d79"/><path d="M44.957,61.644,42.083,51.288,32.2,46.51a58.4,58.4,0,0,1-2.017,15.134Z" fill="#536d79"/><polygon points="28.541 61.644 27.544 53.125 24.93 53.125 23.981 61.644 28.541 61.644" fill="#536d79"/><path d="M21.376,44.55s-.611,3.47,4.9,6.165c0,0-4.125.328-5.31,4.168C20.886,55.044,18.641,46.59,21.376,44.55Z" fill="#ebeef0"/><path d="M31.179,44.55s.611,3.47-4.9,6.165c0,0,4.127.328,5.31,4.168C31.628,55.044,33.873,46.59,31.179,44.55Z" fill="#ebeef0"/><polygon points="77.53 61.644 77.53 47.941 69.728 43.652 61.886 47.987 61.886 61.644 77.53 61.644" fill="#afbdc4"/><polygon points="71.852 50.715 67.564 50.715 68.42 53.125 70.994 53.125 71.852 50.715" fill="#445963"/><path d="M69.728,40.506a5.105,5.105,0,1,1-5.023,5.1A5.065,5.065,0,0,1,69.728,40.506Z" fill="#f4cc90"/><path d="M64.78,37.827c.23,1.15-.165,2.2-.887,2.347S62.4,39.5,62.17,38.349s.165-2.2.886-2.347S64.548,36.674,64.78,37.827Z" fill="#ffd997"/><path d="M74.671,37.827c-.232,1.15.166,2.2.886,2.347s1.491-.672,1.721-1.825-.165-2.2-.884-2.347S74.9,36.674,74.671,37.827Z" fill="#ffd997"/><path d="M76.173,38.581c0,4.7-3.357,8.5-6.5,8.5s-6.5-3.807-6.5-8.5,3.354-8.5,6.5-8.5S76.173,33.886,76.173,38.581Z" fill="#ffd997"/><path d="M76.17,38.3a12.018,12.018,0,0,0,.642-1.5c1.914-5.51-.337-8.333-3.162-8.439l-.009.006a5.288,5.288,0,0,0-4.928-2.488A6.9,6.9,0,0,0,61.937,33.2a13.782,13.782,0,0,0,1.235,5.145s-.039-3.631,1.843-3.9,6.89.266,8-2.336C73.012,32.113,76.235,33.693,76.17,38.3Z" fill="#414141"/><path d="M65.817,61.644A58.46,58.46,0,0,1,63.8,46.51l-9.882,4.778L51.043,61.644Z" fill="#536d79"/><path d="M88.407,61.644,85.533,51.288,75.649,46.51a58.476,58.476,0,0,1-2.016,15.134Z" fill="#536d79"/><polygon points="71.991 61.644 70.994 53.125 68.381 53.125 67.43 61.644 71.991 61.644" fill="#536d79"/><path d="M64.826,44.55s-.61,3.47,4.9,6.165c0,0-4.125.328-5.309,4.168C64.336,55.044,62.091,46.59,64.826,44.55Z" fill="#ebeef0"/><path d="M74.63,44.55s.61,3.47-4.9,6.165c0,0,4.126.328,5.31,4.168C75.079,55.044,77.323,46.59,74.63,44.55Z" fill="#ebeef0"/><polygon points="59.19 73.644 59.19 53.996 48.004 47.845 36.761 54.062 36.761 73.644 59.19 73.644" fill="#afbdc4"/><polygon points="51.05 57.973 44.902 57.973 46.13 61.429 49.82 61.429 51.05 57.973" fill="#445963"/><path d="M48,43.335a7.32,7.32,0,1,1-7.2,7.319A7.262,7.262,0,0,1,48,43.335Z" fill="#f4cc90"/><path d="M40.91,39.493c.331,1.65-.236,3.158-1.27,3.367S37.5,41.9,37.17,40.243s.236-3.159,1.269-3.366S40.578,37.842,40.91,39.493Z" fill="#ffd997"/><path d="M55.093,39.493c-.333,1.65.237,3.158,1.268,3.367S58.5,41.9,58.83,40.243s-.236-3.159-1.269-3.366S55.421,37.842,55.093,39.493Z" fill="#ffd997"/><path d="M57.246,40.576c0,6.732-4.812,12.189-9.323,12.189S38.6,47.308,38.6,40.576s4.811-12.189,9.321-12.189S57.246,33.845,57.246,40.576Z" fill="#ffd997"/><path d="M57.242,40.179a17.537,17.537,0,0,0,.919-2.157c2.744-7.9-.484-11.948-4.534-12.1l-.012.01a7.579,7.579,0,0,0-7.066-3.568,9.888,9.888,0,0,0-9.715,10.5A19.816,19.816,0,0,0,38.6,40.243s-.053-5.207,2.645-5.592,9.877.382,11.467-3.35C52.715,31.3,57.334,33.568,57.242,40.179Z" fill="#414141"/><path d="M42.4,73.644a83.815,83.815,0,0,1-2.893-21.7l-14.171,6.85-4.119,14.85Z" fill="#536d79"/><path d="M74.786,73.644l-4.12-14.85L56.5,51.944a83.831,83.831,0,0,1-2.891,21.7Z" fill="#536d79"/><polygon points="51.249 73.644 49.82 61.429 46.072 61.429 44.711 73.644 51.249 73.644" fill="#536d79"/><path d="M40.977,49.132S40.1,54.109,48,57.973c0,0-5.913.469-7.611,5.974C40.275,64.18,37.054,52.059,40.977,49.132Z" fill="#ebeef0"/><path d="M55.032,49.132s.877,4.977-7.028,8.841c0,0,5.918.469,7.614,5.974C55.677,64.18,58.9,52.059,55.032,49.132Z" fill="#ebeef0"/></g></svg>