<svg id="Layer_1" data-name="Layer 1" xmlns="http://www.w3.org/2000/svg" width="60" height="60" viewBox="0 0 60 60"><title>Artboard 8_users</title><g id="user_male3" data-name="user male3"><polygon points="42.223 58.013 42.223 36.55 30.004 29.832 17.722 36.622 17.722 58.013 42.223 58.013" fill="#d1d3d4"/><polygon points="33.332 40.894 26.616 40.894 27.958 44.67 31.989 44.67 33.332 40.894" fill="#445963"/><path d="M30,24.905A8,8,0,1,1,22.138,32.9,7.933,7.933,0,0,1,30,24.905Z" fill="#f4cc90"/><path d="M22.255,20.707c.361,1.8-.258,3.449-1.388,3.678s-2.336-1.052-2.7-2.858.257-3.45,1.385-3.677S21.89,18.9,22.255,20.707Z" fill="#ffd997"/><path d="M37.747,20.707c-.363,1.8.259,3.449,1.386,3.678s2.336-1.052,2.7-2.858-.256-3.45-1.384-3.677S38.106,18.9,37.747,20.707Z" fill="#ffd997"/><path d="M40.1,21.891c0,7.355-5.258,13.314-10.185,13.314S19.734,29.246,19.734,21.891,24.989,8.575,29.916,8.575,40.1,14.537,40.1,21.891Z" fill="#ffd997"/><path d="M40.1,21.457A19.128,19.128,0,0,0,41.1,19.1c3-8.63-.528-13.053-4.953-13.218l-.015.012A8.28,8.28,0,0,0,28.415,2,10.8,10.8,0,0,0,17.8,13.469a21.642,21.642,0,0,0,1.933,8.058s-.06-5.688,2.887-6.109,10.79.416,12.527-3.66C35.15,11.758,40.2,14.235,40.1,21.457Z" fill="#414141"/><path d="M22.328,31.238S21.37,36.675,30,40.894c0,0-6.459.513-8.314,6.528C21.561,47.676,18.043,34.433,22.328,31.238Z" fill="#f1f1f2"/><path d="M37.682,31.238S38.64,36.675,30,40.894c0,0,6.464.513,8.318,6.528C38.385,47.676,41.9,34.433,37.682,31.238Z" fill="#f1f1f2"/><path d="M23.879,58.013A91.566,91.566,0,0,1,20.72,34.307L5.24,41.791.74,58.013Z" fill="#d1d3d4"/><path d="M59.26,58.013l-4.5-16.222L39.28,34.307a91.611,91.611,0,0,1-3.159,23.706Z" fill="#d1d3d4"/><polygon points="33.547 58.013 31.989 44.67 27.895 44.67 26.407 58.013 33.547 58.013" fill="#536d79"/></g></svg>