<svg id="Layer_1" data-name="Layer 1" xmlns="http://www.w3.org/2000/svg" width="60" height="60" viewBox="0 0 60 60"><title>Artboard 6_users</title><g id="user_male2" data-name="user male2"><polygon points="42.224 58.012 42.224 36.55 30.004 29.831 17.724 36.622 17.724 58.012 42.224 58.012" fill="#afbdc4"/><polygon points="33.333 40.894 26.618 40.894 27.958 44.671 31.99 44.671 33.333 40.894" fill="#445963"/><path d="M30,24.9a8,8,0,1,1-7.865,8A7.934,7.934,0,0,1,30,24.9Z" fill="#f4cc90"/><path d="M22.256,20.708c.362,1.8-.259,3.45-1.387,3.677s-2.338-1.052-2.7-2.857.256-3.452,1.384-3.677S21.892,18.9,22.256,20.708Z" fill="#ffd997"/><path d="M37.748,20.708c-.363,1.8.258,3.45,1.386,3.677s2.336-1.052,2.7-2.857-.257-3.452-1.386-3.677S38.107,18.9,37.748,20.708Z" fill="#ffd997"/><path d="M40.1,21.891c0,7.354-5.258,13.314-10.185,13.314s-10.184-5.96-10.184-13.314S24.99,8.575,29.917,8.575,40.1,14.537,40.1,21.891Z" fill="#ffd997"/><path d="M40.1,21.458a19.292,19.292,0,0,0,1-2.357c3-8.63-.529-13.053-4.953-13.217l-.014.011A8.281,8.281,0,0,0,28.415,2,10.8,10.8,0,0,0,17.8,13.469a21.685,21.685,0,0,0,1.932,8.059s-.06-5.689,2.888-6.111,10.791.417,12.527-3.658C35.151,11.759,40.2,14.235,40.1,21.458Z" fill="#414141"/><path d="M23.88,58.012a91.613,91.613,0,0,1-3.16-23.7L5.24,41.791.741,58.012Z" fill="#536d79"/><path d="M59.259,58.012l-4.5-16.221-15.48-7.483a91.644,91.644,0,0,1-3.159,23.7Z" fill="#536d79"/><polygon points="33.548 58.012 31.99 44.671 27.895 44.671 26.408 58.012 33.548 58.012" fill="#536d79"/><path d="M22.328,31.238S21.372,36.675,30,40.894c0,0-6.46.514-8.313,6.527C21.561,47.676,18.044,34.434,22.328,31.238Z" fill="#ebeef0"/><path d="M37.683,31.238s.955,5.437-7.679,9.656c0,0,6.465.514,8.319,6.527C38.386,47.676,41.9,34.434,37.683,31.238Z" fill="#ebeef0"/></g></svg>