<svg id="Layer_1" data-name="Layer 1" xmlns="http://www.w3.org/2000/svg" width="60" height="60" viewBox="0 0 60 60"><title>Artboard 7_users</title><g id="user_female2" data-name="user female2"><path d="M34.914,4.012c-7.192-5.519-17.45.862-18.367,15.806h0A36.154,36.154,0,0,0,17.7,31.987c.016.062.034.117.053.178a15.636,15.636,0,0,0,.635,1.738,7.584,7.584,0,0,0,1.37,2.239,3.59,3.59,0,0,0,.766.625,4.407,4.407,0,0,0,2.352.577H36.838a4.457,4.457,0,0,0,2.273-.53,3.7,3.7,0,0,0,.845-.672A7.6,7.6,0,0,0,41.325,33.9a16.259,16.259,0,0,0,.636-1.738c.018-.061.036-.116.051-.184a27.167,27.167,0,0,0,.8-3.747C45.085,14.091,41.976,4.536,34.914,4.012Z" fill="#634738"/><path d="M29.92,15.823c2.951,0,5.421,9.466,5.421,16.339S32.947,44.61,29.993,44.61s-5.348-5.573-5.348-12.448S26.966,15.823,29.92,15.823Z" fill="#f4cc90"/><polygon points="21.977 35.579 24.737 34.444 35.25 34.444 37.864 35.579 35.255 51.447 23.059 51.447 21.977 35.579" fill="#f4cc90"/><path d="M23.1,20.577c.351,1.751-.251,3.349-1.346,3.569s-2.267-1.022-2.618-2.773.251-3.349,1.346-3.568S22.744,18.826,23.1,20.577Z" fill="#ffd997"/><path d="M36.907,20.577c-.352,1.751.25,3.349,1.345,3.569s2.268-1.022,2.62-2.773-.252-3.349-1.347-3.568S37.257,18.826,36.907,20.577Z" fill="#ffd997"/><path d="M29.92,34.648c-4.782,0-9.884-5.786-9.884-12.922a14.909,14.909,0,0,1,.438-3.553c.374-1.3,2.162-2.923,2.37-4.22C23.728,8.431,26.913,2.35,35,11.891a8.891,8.891,0,0,1,3.275,3.28A14.893,14.893,0,0,1,39.8,21.726C39.8,28.862,34.7,34.648,29.92,34.648Z" fill="#ffd997"/><path d="M38.669,17.779s-.817-.11-1.966-.251h0L36.262,15.5l-.427,1.926c-.5-.059-1.035-.122-1.578-.181L33.4,12.331l-.6,4.744c-.892-.078-2.278-.173-2.812-.173h-.01l-.338-2.814-.537,2.845c-1.2.069-2.883.246-4.383.421l-.346-4.76-.565,4.868c-1.418.173-2.5.317-2.5.317S19.934,5.182,30,6.855C30,6.855,40.352,5.753,38.669,17.779Z" fill="#634738"/><path d="M37.694,38.455a6.172,6.172,0,0,1-1.788,1.818c-.448,1.438-2.912,2.538-5.892,2.538-2.813,0-5.164-.98-5.8-2.3a6.748,6.748,0,0,1-1.853-1.61c.041,1.262.846,5.421,4.873,18.673h5.627C37.646,41.827,37.882,38.92,37.694,38.455Z" fill="#d1d3d4"/><path d="M55.317,57.952a139.361,139.361,0,0,0-4.334-14.07c-2.318-5.9-15.724-9.438-15.724-9.438a32.451,32.451,0,0,1-5.223,20.978h0a34.971,34.971,0,0,1-5.3-20.978s-13.4,3.54-15.721,9.438a139.528,139.528,0,0,0-4.337,14.07Z" fill="#536d79"/><path d="M24.741,33.947s-.793,9.7,5.3,21.475a32.1,32.1,0,0,1-12.116-14.5L21.3,39.356l-1-1.888Z" fill="#f1f1f2"/><path d="M35.259,33.947s.864,9.7-5.223,21.475a32.187,32.187,0,0,0,12.046-14.5L38.7,39.356l.994-1.888Z" fill="#f1f1f2"/></g></svg>